<?xml version="1.0" encoding="UTF-8" standalone="no"?>
<!DOCTYPE svg PUBLIC "-//W3C//DTD SVG 1.1//EN"
 "http://www.w3.org/Graphics/SVG/1.1/DTD/svg11.dtd">
<!-- Generated by graphviz version 14.0.0 (20250921.2048)
 -->
<!-- Title: MIND Pages: 1 -->
<svg width="1394pt" height="1319pt"
 viewBox="0.00 0.00 1394.00 1319.00" xmlns="http://www.w3.org/2000/svg" xmlns:xlink="http://www.w3.org/1999/xlink">
<g id="graph0" class="graph" transform="scale(1 1) rotate(0) translate(4 1315.25)">
<title>MIND</title>
<polygon fill="white" stroke="none" points="-4,4 -4,-1315.25 1390,-1315.25 1390,4 -4,4"/>
<text xml:space="preserve" text-anchor="middle" x="693" y="-1297.75" font-family="Segoe UI" font-size="10.00">MIND Relational Schema (v1.0)</text>
<g id="clust1" class="cluster">
<title>cluster_meta</title>
<polygon fill="#f8faff" stroke="#b0c4de" points="8,-857 8,-1281 1116.12,-1281 1116.12,-857 8,-857"/>
<text xml:space="preserve" text-anchor="middle" x="562.06" y="-1267.5" font-family="Segoe UI" font-size="10.00">Meta &amp; Structure</text>
</g>
<g id="clust2" class="cluster">
<title>cluster_execution</title>
<polygon fill="#fff8f2" stroke="#ffdab9" points="866.75,-635 866.75,-849 1378,-849 1378,-635 866.75,-635"/>
<text xml:space="preserve" text-anchor="middle" x="1122.38" y="-835.5" font-family="Segoe UI" font-size="10.00">Experience Execution &amp; Events</text>
</g>
<g id="clust3" class="cluster">
<title>cluster_tracking</title>
<polygon fill="#f7fff7" stroke="#98fb98" points="904.62,-140 904.62,-627 1098.88,-627 1098.88,-140 904.62,-140"/>
<text xml:space="preserve" text-anchor="middle" x="1001.75" y="-613.5" font-family="Segoe UI" font-size="10.00">Tracking Data</text>
</g>
<g id="clust4" class="cluster">
<title>cluster_variables</title>
<polygon fill="#f9f8ff" stroke="#e6e6fa" points="508.5,-8 508.5,-132 1128.12,-132 1128.12,-8 508.5,-8"/>
<text xml:space="preserve" text-anchor="middle" x="818.31" y="-118.5" font-family="Segoe UI" font-size="10.00">Variables &amp; Updates</text>
</g>
<!-- Researcher -->
<g id="node1" class="node">
<title>Researcher</title>
<path fill="none" stroke="#666666" d="M28,-950.5C28,-950.5 170.25,-950.5 170.25,-950.5 176.25,-950.5 182.25,-956.5 182.25,-962.5 182.25,-962.5 182.25,-997.5 182.25,-997.5 182.25,-1003.5 176.25,-1009.5 170.25,-1009.5 170.25,-1009.5 28,-1009.5 28,-1009.5 22,-1009.5 16,-1003.5 16,-997.5 16,-997.5 16,-962.5 16,-962.5 16,-956.5 22,-950.5 28,-950.5"/>
<text xml:space="preserve" text-anchor="middle" x="45.38" y="-977.83" font-family="Segoe UI" font-size="9.00">Researcher</text>
<polyline fill="none" stroke="#666666" points="74.75,-950.5 74.75,-1009.5"/>
<text xml:space="preserve" text-anchor="start" x="82.75" y="-996.95" font-family="Segoe UI" font-size="9.00">PK researcher_id : UUID</text>
<text xml:space="preserve" text-anchor="start" x="82.75" y="-984.2" font-family="Segoe UI" font-size="9.00">name : text</text>
<text xml:space="preserve" text-anchor="start" x="82.75" y="-971.45" font-family="Segoe UI" font-size="9.00">email : text</text>
<text xml:space="preserve" text-anchor="start" x="82.75" y="-958.7" font-family="Segoe UI" font-size="9.00">institution : text</text>
</g>
<!-- Experience -->
<g id="node2" class="node">
<title>Experience</title>
<path fill="none" stroke="#666666" d="M251.25,-950.5C251.25,-950.5 447.5,-950.5 447.5,-950.5 453.5,-950.5 459.5,-956.5 459.5,-962.5 459.5,-962.5 459.5,-997.5 459.5,-997.5 459.5,-1003.5 453.5,-1009.5 447.5,-1009.5 447.5,-1009.5 251.25,-1009.5 251.25,-1009.5 245.25,-1009.5 239.25,-1003.5 239.25,-997.5 239.25,-997.5 239.25,-962.5 239.25,-962.5 239.25,-956.5 245.25,-950.5 251.25,-950.5"/>
<text xml:space="preserve" text-anchor="middle" x="268.62" y="-977.83" font-family="Segoe UI" font-size="9.00">Experience</text>
<polyline fill="none" stroke="#666666" points="298,-950.5 298,-1009.5"/>
<text xml:space="preserve" text-anchor="start" x="306" y="-996.95" font-family="Segoe UI" font-size="9.00">PK experience_id : UUID</text>
<text xml:space="preserve" text-anchor="start" x="306" y="-984.2" font-family="Segoe UI" font-size="9.00">FK researcher_id : UUID → Researcher</text>
<text xml:space="preserve" text-anchor="start" x="306" y="-971.45" font-family="Segoe UI" font-size="9.00">name : text</text>
<text xml:space="preserve" text-anchor="start" x="306" y="-958.7" font-family="Segoe UI" font-size="9.00">description : text</text>
</g>
<!-- Researcher&#45;&gt;Experience -->
<g id="edge1" class="edge">
<title>Researcher&#45;&gt;Experience</title>
<path fill="none" stroke="#4d4d4d" d="M182.44,-980C197.83,-980 214.18,-980 230.4,-980"/>
<polygon fill="#4d4d4d" stroke="#4d4d4d" points="230.34,-982.45 237.34,-980 230.34,-977.55 230.34,-982.45"/>
<text xml:space="preserve" text-anchor="middle" x="210.75" y="-983.2" font-family="Times New Roman,serif" font-size="14.00">1..*</text>
</g>
<!-- SessionType -->
<g id="node3" class="node">
<title>SessionType</title>
<path fill="none" stroke="#666666" d="M565.25,-865.88C565.25,-865.88 769,-865.88 769,-865.88 775,-865.88 781,-871.88 781,-877.88 781,-877.88 781,-900.12 781,-900.12 781,-906.12 775,-912.12 769,-912.12 769,-912.12 565.25,-912.12 565.25,-912.12 559.25,-912.12 553.25,-906.12 553.25,-900.12 553.25,-900.12 553.25,-877.88 553.25,-877.88 553.25,-871.88 559.25,-865.88 565.25,-865.88"/>
<text xml:space="preserve" text-anchor="middle" x="585.25" y="-886.83" font-family="Segoe UI" font-size="9.00">SessionType</text>
<polyline fill="none" stroke="#666666" points="617.25,-865.88 617.25,-912.12"/>
<text xml:space="preserve" text-anchor="start" x="625.25" y="-899.58" font-family="Segoe UI" font-size="9.00">PK session_type_id : UUID</text>
<text xml:space="preserve" text-anchor="start" x="625.25" y="-886.83" font-family="Segoe UI" font-size="9.00">FK experience_id : UUID → Experience</text>
<text xml:space="preserve" text-anchor="start" x="625.25" y="-874.08" font-family="Segoe UI" font-size="9.00">name : text</text>
</g>
<!-- Experience&#45;&gt;SessionType -->
<g id="edge2" class="edge">
<title>Experience&#45;&gt;SessionType</title>
<path fill="none" stroke="#4d4d4d" d="M425.24,-950.01C451.32,-940.24 480.95,-929.89 508.5,-922 520.19,-918.65 532.45,-915.49 544.76,-912.55"/>
<polygon fill="#4d4d4d" stroke="#4d4d4d" points="545.12,-914.98 551.37,-910.99 543.99,-910.21 545.12,-914.98"/>
<text xml:space="preserve" text-anchor="middle" x="488" y="-934.7" font-family="Times New Roman,serif" font-size="14.00">1..*</text>
</g>
<!-- Run -->
<g id="node4" class="node">
<title>Run</title>
<path fill="none" stroke="#666666" d="M575.38,-931.38C575.38,-931.38 758.88,-931.38 758.88,-931.38 764.88,-931.38 770.88,-937.38 770.88,-943.38 770.88,-943.38 770.88,-1016.62 770.88,-1016.62 770.88,-1022.62 764.88,-1028.62 758.88,-1028.62 758.88,-1028.62 575.38,-1028.62 575.38,-1028.62 569.38,-1028.62 563.38,-1022.62 563.38,-1016.62 563.38,-1016.62 563.38,-943.38 563.38,-943.38 563.38,-937.38 569.38,-931.38 575.38,-931.38"/>
<text xml:space="preserve" text-anchor="middle" x="579.25" y="-977.83" font-family="Segoe UI" font-size="9.00">Run</text>
<polyline fill="none" stroke="#666666" points="595.12,-931.38 595.12,-1028.62"/>
<text xml:space="preserve" text-anchor="start" x="603.12" y="-1016.08" font-family="Segoe UI" font-size="9.00">PK run_id : UUID</text>
<text xml:space="preserve" text-anchor="start" x="603.12" y="-1003.33" font-family="Segoe UI" font-size="9.00">FK experience_id : UUID → Experience</text>
<text xml:space="preserve" text-anchor="start" x="603.12" y="-990.58" font-family="Segoe UI" font-size="9.00">FK session_type_id : UUID → SessionType</text>
<text xml:space="preserve" text-anchor="start" x="603.12" y="-977.83" font-family="Segoe UI" font-size="9.00">participant_id : UUID</text>
<text xml:space="preserve" text-anchor="start" x="603.12" y="-965.08" font-family="Segoe UI" font-size="9.00">start_time : timestamptz</text>
<text xml:space="preserve" text-anchor="start" x="603.12" y="-952.33" font-family="Segoe UI" font-size="9.00">end_time : timestamptz</text>
<text xml:space="preserve" text-anchor="start" x="603.12" y="-939.58" font-family="Segoe UI" font-size="9.00">length : interval</text>
</g>
<!-- Experience&#45;&gt;Run -->
<g id="edge3" class="edge">
<title>Experience&#45;&gt;Run</title>
<path fill="none" stroke="#4d4d4d" d="M459.92,-980C490.58,-980 523.93,-980 554.69,-980"/>
<polygon fill="#4d4d4d" stroke="#4d4d4d" points="554.36,-982.45 561.36,-980 554.36,-977.55 554.36,-982.45"/>
<text xml:space="preserve" text-anchor="middle" x="488" y="-983.2" font-family="Times New Roman,serif" font-size="14.00">1..*</text>
</g>
<!-- Epoch -->
<g id="node5" class="node">
<title>Epoch</title>
<path fill="none" stroke="#666666" d="M576.88,-1047.5C576.88,-1047.5 757.38,-1047.5 757.38,-1047.5 763.38,-1047.5 769.38,-1053.5 769.38,-1059.5 769.38,-1059.5 769.38,-1094.5 769.38,-1094.5 769.38,-1100.5 763.38,-1106.5 757.38,-1106.5 757.38,-1106.5 576.88,-1106.5 576.88,-1106.5 570.88,-1106.5 564.88,-1100.5 564.88,-1094.5 564.88,-1094.5 564.88,-1059.5 564.88,-1059.5 564.88,-1053.5 570.88,-1047.5 576.88,-1047.5"/>
<text xml:space="preserve" text-anchor="middle" x="585.25" y="-1074.83" font-family="Segoe UI" font-size="9.00">Epoch</text>
<polyline fill="none" stroke="#666666" points="605.62,-1047.5 605.62,-1106.5"/>
<text xml:space="preserve" text-anchor="start" x="613.62" y="-1093.95" font-family="Segoe UI" font-size="9.00">PK epoch_id : UUID</text>
<text xml:space="preserve" text-anchor="start" x="613.62" y="-1081.2" font-family="Segoe UI" font-size="9.00">FK experience_id : UUID → Experience</text>
<text xml:space="preserve" text-anchor="start" x="613.62" y="-1068.45" font-family="Segoe UI" font-size="9.00">name : text</text>
<text xml:space="preserve" text-anchor="start" x="613.62" y="-1055.7" font-family="Segoe UI" font-size="9.00">description : text</text>
</g>
<!-- Experience&#45;&gt;Epoch -->
<g id="edge4" class="edge">
<title>Experience&#45;&gt;Epoch</title>
<path fill="none" stroke="#4d4d4d" d="M426.61,-1009.87C452.41,-1019.47 481.52,-1029.74 508.5,-1038 524.02,-1042.75 540.53,-1047.34 556.81,-1051.59"/>
<polygon fill="#4d4d4d" stroke="#4d4d4d" points="555.92,-1053.89 563.31,-1053.28 557.14,-1049.15 555.92,-1053.89"/>
<text xml:space="preserve" text-anchor="middle" x="488" y="-1037.11" font-family="Times New Roman,serif" font-size="14.00">1..*</text>
</g>
<!-- RunDevice -->
<g id="node8" class="node">
<title>RunDevice</title>
<path fill="none" stroke="#666666" d="M919.75,-1011C919.75,-1011 1083.75,-1011 1083.75,-1011 1089.75,-1011 1095.75,-1017 1095.75,-1023 1095.75,-1023 1095.75,-1035 1095.75,-1035 1095.75,-1041 1089.75,-1047 1083.75,-1047 1083.75,-1047 919.75,-1047 919.75,-1047 913.75,-1047 907.75,-1041 907.75,-1035 907.75,-1035 907.75,-1023 907.75,-1023 907.75,-1017 913.75,-1011 919.75,-1011"/>
<text xml:space="preserve" text-anchor="middle" x="936.75" y="-1027.08" font-family="Segoe UI" font-size="9.00">RunDevice</text>
<polyline fill="none" stroke="#666666" points="965.75,-1011.5 965.75,-1047"/>
<text xml:space="preserve" text-anchor="start" x="973.75" y="-1033.45" font-family="Segoe UI" font-size="9.00">FK run_id : UUID → Run</text>
<text xml:space="preserve" text-anchor="start" x="973.75" y="-1020.7" font-family="Segoe UI" font-size="9.00">FK device_id : UUID → Device</text>
</g>
<!-- Run&#45;&gt;RunDevice -->
<g id="edge14" class="edge">
<title>Run&#45;&gt;RunDevice</title>
<path fill="none" stroke="#4d4d4d" d="M771.09,-995.17C811.79,-1001.16 858.44,-1008.04 899.01,-1014.01"/>
<polygon fill="#4d4d4d" stroke="#4d4d4d" points="898.53,-1016.42 905.81,-1015.01 899.25,-1011.57 898.53,-1016.42"/>
<text xml:space="preserve" text-anchor="middle" x="846.25" y="-1010.63" font-family="Times New Roman,serif" font-size="14.00">0..*</text>
</g>
<!-- RunSoftware -->
<g id="node9" class="node">
<title>RunSoftware</title>
<path fill="none" stroke="#666666" d="M907.38,-1129C907.38,-1129 1096.12,-1129 1096.12,-1129 1102.12,-1129 1108.12,-1135 1108.12,-1141 1108.12,-1141 1108.12,-1153 1108.12,-1153 1108.12,-1159 1102.12,-1165 1096.12,-1165 1096.12,-1165 907.38,-1165 907.38,-1165 901.38,-1165 895.38,-1159 895.38,-1153 895.38,-1153 895.38,-1141 895.38,-1141 895.38,-1135 901.38,-1129 907.38,-1129"/>
<text xml:space="preserve" text-anchor="middle" x="928.5" y="-1145.08" font-family="Segoe UI" font-size="9.00">RunSoftware</text>
<polyline fill="none" stroke="#666666" points="961.62,-1129.5 961.62,-1165"/>
<text xml:space="preserve" text-anchor="start" x="969.62" y="-1151.45" font-family="Segoe UI" font-size="9.00">FK run_id : UUID → Run</text>
<text xml:space="preserve" text-anchor="start" x="969.62" y="-1138.7" font-family="Segoe UI" font-size="9.00">FK software_id : UUID → Software</text>
</g>
<!-- Run&#45;&gt;RunSoftware -->
<g id="edge15" class="edge">
<title>Run&#45;&gt;RunSoftware</title>
<path fill="none" stroke="#4d4d4d" d="M771.32,-1017.38C787.06,-1023.84 802.97,-1030.8 817.75,-1038 871.51,-1064.2 930.38,-1100.8 966.44,-1124.2"/>
<polygon fill="#4d4d4d" stroke="#4d4d4d" points="964.87,-1126.1 972.08,-1127.87 967.55,-1121.99 964.87,-1126.1"/>
<text xml:space="preserve" text-anchor="middle" x="846.25" y="-1059.89" font-family="Times New Roman,serif" font-size="14.00">0..*</text>
</g>
<!-- ExperienceExecution -->
<g id="node10" class="node">
<title>ExperienceExecution</title>
<path fill="none" stroke="#666666" d="M901,-759.5C901,-759.5 1102.5,-759.5 1102.5,-759.5 1108.5,-759.5 1114.5,-765.5 1114.5,-771.5 1114.5,-771.5 1114.5,-806.5 1114.5,-806.5 1114.5,-812.5 1108.5,-818.5 1102.5,-818.5 1102.5,-818.5 901,-818.5 901,-818.5 895,-818.5 889,-812.5 889,-806.5 889,-806.5 889,-771.5 889,-771.5 889,-765.5 895,-759.5 901,-759.5"/>
<text xml:space="preserve" text-anchor="middle" x="937.88" y="-786.83" font-family="Segoe UI" font-size="9.00">ExperienceExecution</text>
<polyline fill="none" stroke="#666666" points="986.75,-759.5 986.75,-818.5"/>
<text xml:space="preserve" text-anchor="start" x="994.75" y="-805.95" font-family="Segoe UI" font-size="9.00">frame_number : int (PK)</text>
<text xml:space="preserve" text-anchor="start" x="994.75" y="-793.2" font-family="Segoe UI" font-size="9.00">timestamp : timestamptz</text>
<text xml:space="preserve" text-anchor="start" x="994.75" y="-780.45" font-family="Segoe UI" font-size="9.00">FK epoch_id : UUID → Epoch</text>
<text xml:space="preserve" text-anchor="start" x="994.75" y="-767.7" font-family="Segoe UI" font-size="9.00">epoch_number : int</text>
</g>
<!-- Run&#45;&gt;ExperienceExecution -->
<g id="edge5" class="edge">
<title>Run&#45;&gt;ExperienceExecution</title>
<path fill="none" stroke="#4d4d4d" d="M771.02,-949.37C787.55,-941.91 803.79,-932.87 817.75,-922 847.43,-898.89 837.97,-877.21 866.75,-853 880.61,-841.34 896.95,-831.26 913.37,-822.77"/>
<polygon fill="#4d4d4d" stroke="#4d4d4d" points="914.4,-825 919.56,-819.67 912.2,-820.62 914.4,-825"/>
<text xml:space="preserve" text-anchor="middle" x="846.25" y="-904.68" font-family="Times New Roman,serif" font-size="14.00">1..*</text>
</g>
<!-- EventPoint -->
<g id="node11" class="node">
<title>EventPoint</title>
<path fill="none" stroke="#666666" d="M886.75,-643.38C886.75,-643.38 1116.75,-643.38 1116.75,-643.38 1122.75,-643.38 1128.75,-649.38 1128.75,-655.38 1128.75,-655.38 1128.75,-728.62 1128.75,-728.62 1128.75,-734.62 1122.75,-740.62 1116.75,-740.62 1116.75,-740.62 886.75,-740.62 886.75,-740.62 880.75,-740.62 874.75,-734.62 874.75,-728.62 874.75,-728.62 874.75,-655.38 874.75,-655.38 874.75,-649.38 880.75,-643.38 886.75,-643.38"/>
<text xml:space="preserve" text-anchor="middle" x="903.75" y="-689.83" font-family="Segoe UI" font-size="9.00">EventPoint</text>
<polyline fill="none" stroke="#666666" points="932.75,-643.38 932.75,-740.62"/>
<text xml:space="preserve" text-anchor="start" x="940.75" y="-728.08" font-family="Segoe UI" font-size="9.00">PK event_id : UUID</text>
<text xml:space="preserve" text-anchor="start" x="940.75" y="-715.33" font-family="Segoe UI" font-size="9.00">FK run_id : UUID → Run</text>
<text xml:space="preserve" text-anchor="start" x="940.75" y="-702.58" font-family="Segoe UI" font-size="9.00">FK frame_number : int → ExperienceExecution</text>
<text xml:space="preserve" text-anchor="start" x="940.75" y="-689.83" font-family="Segoe UI" font-size="9.00">name : text</text>
<text xml:space="preserve" text-anchor="start" x="940.75" y="-677.08" font-family="Segoe UI" font-size="9.00">source : text</text>
<text xml:space="preserve" text-anchor="start" x="940.75" y="-664.33" font-family="Segoe UI" font-size="9.00">source_type : text</text>
<text xml:space="preserve" text-anchor="start" x="940.75" y="-651.58" font-family="Segoe UI" font-size="9.00">event_number : int</text>
</g>
<!-- Run&#45;&gt;EventPoint -->
<g id="edge6" class="edge">
<title>Run&#45;&gt;EventPoint</title>
<path fill="none" stroke="#4d4d4d" d="M771.28,-955.49C788.78,-947.32 805.28,-936.45 817.75,-922 841.41,-894.57 825.98,-877.39 835.75,-842.5 847.44,-800.75 837.42,-781.94 866.75,-750 867.84,-748.81 868.96,-747.64 870.11,-746.5"/>
<polygon fill="#4d4d4d" stroke="#4d4d4d" points="871.5,-748.56 874.96,-742 868.16,-744.97 871.5,-748.56"/>
<text xml:space="preserve" text-anchor="middle" x="846.25" y="-845.7" font-family="Times New Roman,serif" font-size="14.00">1..*</text>
</g>
<!-- EyeTracking -->
<g id="node13" class="node">
<title>EyeTracking</title>
<path fill="none" stroke="#666666" d="M928.75,-486C928.75,-486 1074.75,-486 1074.75,-486 1080.75,-486 1086.75,-492 1086.75,-498 1086.75,-498 1086.75,-584 1086.75,-584 1086.75,-590 1080.75,-596 1074.75,-596 1074.75,-596 928.75,-596 928.75,-596 922.75,-596 916.75,-590 916.75,-584 916.75,-584 916.75,-498 916.75,-498 916.75,-492 922.75,-486 928.75,-486"/>
<text xml:space="preserve" text-anchor="middle" x="948" y="-538.83" font-family="Segoe UI" font-size="9.00">EyeTracking</text>
<polyline fill="none" stroke="#666666" points="979.25,-486 979.25,-596"/>
<text xml:space="preserve" text-anchor="start" x="987.25" y="-583.45" font-family="Segoe UI" font-size="9.00">PK eye_id : UUID</text>
<text xml:space="preserve" text-anchor="start" x="987.25" y="-570.7" font-family="Segoe UI" font-size="9.00">FK run_id : UUID → Run</text>
<text xml:space="preserve" text-anchor="start" x="987.25" y="-557.95" font-family="Segoe UI" font-size="9.00">frame_number : int</text>
<text xml:space="preserve" text-anchor="start" x="987.25" y="-545.2" font-family="Segoe UI" font-size="9.00">position : vector3</text>
<text xml:space="preserve" text-anchor="start" x="987.25" y="-532.45" font-family="Segoe UI" font-size="9.00">rotation : quaternion</text>
<text xml:space="preserve" text-anchor="start" x="987.25" y="-519.7" font-family="Segoe UI" font-size="9.00">pupil_size : float</text>
<text xml:space="preserve" text-anchor="start" x="987.25" y="-506.95" font-family="Segoe UI" font-size="9.00">hit_object : text</text>
<text xml:space="preserve" text-anchor="start" x="987.25" y="-494.2" font-family="Segoe UI" font-size="9.00">hit_distance : float</text>
</g>
<!-- Run&#45;&gt;EyeTracking -->
<g id="edge8" class="edge">
<title>Run&#45;&gt;EyeTracking</title>
<path fill="none" stroke="#4d4d4d" d="M771.22,-957.39C789.17,-949.05 805.86,-937.63 817.75,-922 842.03,-890.1 828.35,-781.9 835.75,-742.5 845.24,-691.95 836.64,-672.7 866.75,-631 878.33,-614.95 893.73,-600.91 909.94,-588.99"/>
<polygon fill="#4d4d4d" stroke="#4d4d4d" points="910.93,-591.29 915.2,-585.23 908.08,-587.3 910.93,-591.29"/>
<text xml:space="preserve" text-anchor="middle" x="846.25" y="-745.7" font-family="Times New Roman,serif" font-size="14.00">0..*</text>
</g>
<!-- FaceTracking -->
<g id="node14" class="node">
<title>FaceTracking</title>
<path fill="none" stroke="#666666" d="M926.88,-407.5C926.88,-407.5 1076.62,-407.5 1076.62,-407.5 1082.62,-407.5 1088.62,-413.5 1088.62,-419.5 1088.62,-419.5 1088.62,-454.5 1088.62,-454.5 1088.62,-460.5 1082.62,-466.5 1076.62,-466.5 1076.62,-466.5 926.88,-466.5 926.88,-466.5 920.88,-466.5 914.88,-460.5 914.88,-454.5 914.88,-454.5 914.88,-419.5 914.88,-419.5 914.88,-413.5 920.88,-407.5 926.88,-407.5"/>
<text xml:space="preserve" text-anchor="middle" x="948" y="-434.82" font-family="Segoe UI" font-size="9.00">FaceTracking</text>
<polyline fill="none" stroke="#666666" points="981.12,-407.5 981.12,-466.5"/>
<text xml:space="preserve" text-anchor="start" x="989.12" y="-453.95" font-family="Segoe UI" font-size="9.00">PK face_id : UUID</text>
<text xml:space="preserve" text-anchor="start" x="989.12" y="-441.2" font-family="Segoe UI" font-size="9.00">FK run_id : UUID → Run</text>
<text xml:space="preserve" text-anchor="start" x="989.12" y="-428.45" font-family="Segoe UI" font-size="9.00">frame_number : int</text>
<text xml:space="preserve" text-anchor="start" x="989.12" y="-415.7" font-family="Segoe UI" font-size="9.00">coefficients[60] : float</text>
</g>
<!-- Run&#45;&gt;FaceTracking -->
<g id="edge9" class="edge">
<title>Run&#45;&gt;FaceTracking</title>
<path fill="none" stroke="#4d4d4d" d="M771.33,-957.93C789.38,-949.55 806.08,-937.97 817.75,-922 837.15,-895.44 831.4,-659.11 835.75,-626.5 844.72,-559.24 820.86,-526.99 866.75,-477 877.58,-465.2 891.74,-456.82 906.78,-450.89"/>
<polygon fill="#4d4d4d" stroke="#4d4d4d" points="907.55,-453.21 913.29,-448.52 905.88,-448.61 907.55,-453.21"/>
<text xml:space="preserve" text-anchor="middle" x="846.25" y="-629.7" font-family="Times New Roman,serif" font-size="14.00">0..*</text>
</g>
<!-- BodyTracking -->
<g id="node15" class="node">
<title>BodyTracking</title>
<path fill="none" stroke="#666666" d="M925.38,-278C925.38,-278 1078.12,-278 1078.12,-278 1084.12,-278 1090.12,-284 1090.12,-290 1090.12,-290 1090.12,-376 1090.12,-376 1090.12,-382 1084.12,-388 1078.12,-388 1078.12,-388 925.38,-388 925.38,-388 919.38,-388 913.38,-382 913.38,-376 913.38,-376 913.38,-290 913.38,-290 913.38,-284 919.38,-278 925.38,-278"/>
<text xml:space="preserve" text-anchor="middle" x="948" y="-330.82" font-family="Segoe UI" font-size="9.00">BodyTracking</text>
<polyline fill="none" stroke="#666666" points="982.62,-278 982.62,-388"/>
<text xml:space="preserve" text-anchor="start" x="990.62" y="-375.45" font-family="Segoe UI" font-size="9.00">PK body_id : UUID</text>
<text xml:space="preserve" text-anchor="start" x="990.62" y="-362.7" font-family="Segoe UI" font-size="9.00">FK run_id : UUID → Run</text>
<text xml:space="preserve" text-anchor="start" x="990.62" y="-349.95" font-family="Segoe UI" font-size="9.00">frame_number : int</text>
<text xml:space="preserve" text-anchor="start" x="990.62" y="-337.2" font-family="Segoe UI" font-size="9.00">bone_name : text</text>
<text xml:space="preserve" text-anchor="start" x="990.62" y="-324.45" font-family="Segoe UI" font-size="9.00">confidence : float</text>
<text xml:space="preserve" text-anchor="start" x="990.62" y="-311.7" font-family="Segoe UI" font-size="9.00">position : vector3</text>
<text xml:space="preserve" text-anchor="start" x="990.62" y="-298.95" font-family="Segoe UI" font-size="9.00">rotation : quaternion</text>
<text xml:space="preserve" text-anchor="start" x="990.62" y="-286.2" font-family="Segoe UI" font-size="9.00">velocity : vector3</text>
</g>
<!-- Run&#45;&gt;BodyTracking -->
<g id="edge10" class="edge">
<title>Run&#45;&gt;BodyTracking</title>
<path fill="none" stroke="#4d4d4d" d="M771.21,-958.3C789.38,-949.89 806.17,-938.21 817.75,-922 846.88,-881.24 824.84,-520.39 835.75,-471.5 843.47,-436.9 842.35,-423.72 866.75,-398 877.91,-386.23 891.65,-376.33 906.04,-368.08"/>
<polygon fill="#4d4d4d" stroke="#4d4d4d" points="906.87,-370.42 911.82,-364.9 904.5,-366.13 906.87,-370.42"/>
<text xml:space="preserve" text-anchor="middle" x="846.25" y="-474.7" font-family="Times New Roman,serif" font-size="14.00">0..*</text>
</g>
<!-- HandTracking -->
<g id="node16" class="node">
<title>HandTracking</title>
<path fill="none" stroke="#666666" d="M924.62,-149C924.62,-149 1078.88,-149 1078.88,-149 1084.88,-149 1090.88,-155 1090.88,-161 1090.88,-161 1090.88,-247 1090.88,-247 1090.88,-253 1084.88,-259 1078.88,-259 1078.88,-259 924.62,-259 924.62,-259 918.62,-259 912.62,-253 912.62,-247 912.62,-247 912.62,-161 912.62,-161 912.62,-155 918.62,-149 924.62,-149"/>
<text xml:space="preserve" text-anchor="middle" x="948" y="-201.82" font-family="Segoe UI" font-size="9.00">HandTracking</text>
<polyline fill="none" stroke="#666666" points="983.38,-149 983.38,-259"/>
<text xml:space="preserve" text-anchor="start" x="991.38" y="-246.45" font-family="Segoe UI" font-size="9.00">PK hand_id : UUID</text>
<text xml:space="preserve" text-anchor="start" x="991.38" y="-233.7" font-family="Segoe UI" font-size="9.00">FK run_id : UUID → Run</text>
<text xml:space="preserve" text-anchor="start" x="991.38" y="-220.95" font-family="Segoe UI" font-size="9.00">frame_number : int</text>
<text xml:space="preserve" text-anchor="start" x="991.38" y="-208.2" font-family="Segoe UI" font-size="9.00">hand_side : enum(L/R)</text>
<text xml:space="preserve" text-anchor="start" x="991.38" y="-195.45" font-family="Segoe UI" font-size="9.00">bone_name : text</text>
<text xml:space="preserve" text-anchor="start" x="991.38" y="-182.7" font-family="Segoe UI" font-size="9.00">position : vector3</text>
<text xml:space="preserve" text-anchor="start" x="991.38" y="-169.95" font-family="Segoe UI" font-size="9.00">rotation : quaternion</text>
<text xml:space="preserve" text-anchor="start" x="991.38" y="-157.2" font-family="Segoe UI" font-size="9.00">velocity : vector3</text>
</g>
<!-- Run&#45;&gt;HandTracking -->
<g id="edge11" class="edge">
<title>Run&#45;&gt;HandTracking</title>
<path fill="none" stroke="#4d4d4d" d="M771.28,-958.35C789.46,-949.94 806.22,-938.24 817.75,-922 834.85,-897.91 831.57,-419.75 835.75,-390.5 843.63,-335.33 831.51,-312.18 866.75,-269 877.15,-256.26 890.65,-245.84 905.07,-237.37"/>
<polygon fill="#4d4d4d" stroke="#4d4d4d" points="905.98,-239.67 910.89,-234.11 903.59,-235.39 905.98,-239.67"/>
<text xml:space="preserve" text-anchor="middle" x="846.25" y="-393.7" font-family="Times New Roman,serif" font-size="14.00">0..*</text>
</g>
<!-- VariableUpdate -->
<g id="node18" class="node">
<title>VariableUpdate</title>
<path fill="none" stroke="#666666" d="M895.38,-16.75C895.38,-16.75 1108.12,-16.75 1108.12,-16.75 1114.12,-16.75 1120.12,-22.75 1120.12,-28.75 1120.12,-28.75 1120.12,-89.25 1120.12,-89.25 1120.12,-95.25 1114.12,-101.25 1108.12,-101.25 1108.12,-101.25 895.38,-101.25 895.38,-101.25 889.38,-101.25 883.38,-95.25 883.38,-89.25 883.38,-89.25 883.38,-28.75 883.38,-28.75 883.38,-22.75 889.38,-16.75 895.38,-16.75"/>
<text xml:space="preserve" text-anchor="middle" x="921.38" y="-56.83" font-family="Segoe UI" font-size="9.00">VariableUpdate</text>
<polyline fill="none" stroke="#666666" points="959.38,-16.75 959.38,-101.25"/>
<text xml:space="preserve" text-anchor="start" x="967.38" y="-88.7" font-family="Segoe UI" font-size="9.00">PK update_id : UUID</text>
<text xml:space="preserve" text-anchor="start" x="967.38" y="-75.95" font-family="Segoe UI" font-size="9.00">FK run_id : UUID → Run</text>
<text xml:space="preserve" text-anchor="start" x="967.38" y="-63.2" font-family="Segoe UI" font-size="9.00">FK variable_id : UUID → VariableMeta</text>
<text xml:space="preserve" text-anchor="start" x="967.38" y="-50.45" font-family="Segoe UI" font-size="9.00">timestamp : timestamptz</text>
<text xml:space="preserve" text-anchor="start" x="967.38" y="-37.7" font-family="Segoe UI" font-size="9.00">modifier : text</text>
<text xml:space="preserve" text-anchor="start" x="967.38" y="-24.95" font-family="Segoe UI" font-size="9.00">value : text</text>
</g>
<!-- Run&#45;&gt;VariableUpdate -->
<g id="edge12" class="edge">
<title>Run&#45;&gt;VariableUpdate</title>
<path fill="none" stroke="#4d4d4d" d="M771.37,-958.41C789.53,-949.99 806.27,-938.28 817.75,-922 838.84,-892.09 830.9,-299.77 835.75,-263.5 843.48,-205.7 831.74,-182.64 866.75,-136 875.1,-124.88 885.56,-115.1 896.93,-106.59"/>
<polygon fill="#4d4d4d" stroke="#4d4d4d" points="898.23,-108.67 902.5,-102.6 895.38,-104.69 898.23,-108.67"/>
<text xml:space="preserve" text-anchor="middle" x="846.25" y="-266.7" font-family="Times New Roman,serif" font-size="14.00">0..*</text>
</g>
<!-- Device -->
<g id="node6" class="node">
<title>Device</title>
<path fill="none" stroke="#666666" d="M611.75,-1125.5C611.75,-1125.5 722.5,-1125.5 722.5,-1125.5 728.5,-1125.5 734.5,-1131.5 734.5,-1137.5 734.5,-1137.5 734.5,-1172.5 734.5,-1172.5 734.5,-1178.5 728.5,-1184.5 722.5,-1184.5 722.5,-1184.5 611.75,-1184.5 611.75,-1184.5 605.75,-1184.5 599.75,-1178.5 599.75,-1172.5 599.75,-1172.5 599.75,-1137.5 599.75,-1137.5 599.75,-1131.5 605.75,-1125.5 611.75,-1125.5"/>
<text xml:space="preserve" text-anchor="middle" x="620.88" y="-1152.83" font-family="Segoe UI" font-size="9.00">Device</text>
<polyline fill="none" stroke="#666666" points="642,-1125.5 642,-1184.5"/>
<text xml:space="preserve" text-anchor="start" x="650" y="-1171.95" font-family="Segoe UI" font-size="9.00">PK device_id : UUID</text>
<text xml:space="preserve" text-anchor="start" x="650" y="-1159.2" font-family="Segoe UI" font-size="9.00">name : text</text>
<text xml:space="preserve" text-anchor="start" x="650" y="-1146.45" font-family="Segoe UI" font-size="9.00">type : text</text>
<text xml:space="preserve" text-anchor="start" x="650" y="-1133.7" font-family="Segoe UI" font-size="9.00">manufacturer : text</text>
</g>
<!-- Device&#45;&gt;RunDevice -->
<g id="edge16" class="edge">
<title>Device&#45;&gt;RunDevice</title>
<path fill="none" stroke="#4d4d4d" d="M734.87,-1140.46C761.05,-1134.02 791.14,-1125.69 817.75,-1116 868.05,-1097.67 923.21,-1070.39 959.68,-1051.28"/>
<polygon fill="#4d4d4d" stroke="#4d4d4d" points="960.79,-1053.47 965.84,-1048.04 958.5,-1049.13 960.79,-1053.47"/>
<text xml:space="preserve" text-anchor="middle" x="846.25" y="-1111.36" font-family="Times New Roman,serif" font-size="14.00">1..*</text>
</g>
<!-- Software -->
<g id="node7" class="node">
<title>Software</title>
<path fill="none" stroke="#666666" d="M603.5,-1203.88C603.5,-1203.88 730.75,-1203.88 730.75,-1203.88 736.75,-1203.88 742.75,-1209.88 742.75,-1215.88 742.75,-1215.88 742.75,-1238.12 742.75,-1238.12 742.75,-1244.12 736.75,-1250.12 730.75,-1250.12 730.75,-1250.12 603.5,-1250.12 603.5,-1250.12 597.5,-1250.12 591.5,-1244.12 591.5,-1238.12 591.5,-1238.12 591.5,-1215.88 591.5,-1215.88 591.5,-1209.88 597.5,-1203.88 603.5,-1203.88"/>
<text xml:space="preserve" text-anchor="middle" x="616.75" y="-1224.83" font-family="Segoe UI" font-size="9.00">Software</text>
<polyline fill="none" stroke="#666666" points="642,-1203.88 642,-1250.12"/>
<text xml:space="preserve" text-anchor="start" x="650" y="-1237.58" font-family="Segoe UI" font-size="9.00">PK software_id : UUID</text>
<text xml:space="preserve" text-anchor="start" x="650" y="-1224.83" font-family="Segoe UI" font-size="9.00">name : text</text>
<text xml:space="preserve" text-anchor="start" x="650" y="-1212.08" font-family="Segoe UI" font-size="9.00">version : text</text>
</g>
<!-- Software&#45;&gt;RunSoftware -->
<g id="edge17" class="edge">
<title>Software&#45;&gt;RunSoftware</title>
<path fill="none" stroke="#4d4d4d" d="M743.21,-1210.97C767.08,-1205.73 793.56,-1199.77 817.75,-1194 852.46,-1185.72 890.71,-1175.99 923.23,-1167.54"/>
<polygon fill="#4d4d4d" stroke="#4d4d4d" points="923.75,-1169.93 929.91,-1165.8 922.51,-1165.19 923.75,-1169.93"/>
<text xml:space="preserve" text-anchor="middle" x="846.25" y="-1192.39" font-family="Times New Roman,serif" font-size="14.00">1..*</text>
</g>
<!-- Action -->
<g id="node12" class="node">
<title>Action</title>
<path fill="none" stroke="#666666" d="M1197.75,-668.88C1197.75,-668.88 1358,-668.88 1358,-668.88 1364,-668.88 1370,-674.88 1370,-680.88 1370,-680.88 1370,-703.12 1370,-703.12 1370,-709.12 1364,-715.12 1358,-715.12 1358,-715.12 1197.75,-715.12 1197.75,-715.12 1191.75,-715.12 1185.75,-709.12 1185.75,-703.12 1185.75,-703.12 1185.75,-680.88 1185.75,-680.88 1185.75,-674.88 1191.75,-668.88 1197.75,-668.88"/>
<text xml:space="preserve" text-anchor="middle" x="1206.88" y="-689.83" font-family="Segoe UI" font-size="9.00">Action</text>
<polyline fill="none" stroke="#666666" points="1228,-668.88 1228,-715.12"/>
<text xml:space="preserve" text-anchor="start" x="1236" y="-702.58" font-family="Segoe UI" font-size="9.00">PK action_id : UUID</text>
<text xml:space="preserve" text-anchor="start" x="1236" y="-689.83" font-family="Segoe UI" font-size="9.00">FK event_id : UUID → EventPoint</text>
<text xml:space="preserve" text-anchor="start" x="1236" y="-677.08" font-family="Segoe UI" font-size="9.00">type : text</text>
</g>
<!-- EventPoint&#45;&gt;Action -->
<g id="edge7" class="edge">
<title>EventPoint&#45;&gt;Action</title>
<path fill="none" stroke="#4d4d4d" d="M1128.98,-692C1145.13,-692 1161.49,-692 1177.14,-692"/>
<polygon fill="#4d4d4d" stroke="#4d4d4d" points="1176.75,-694.45 1183.75,-692 1176.75,-689.55 1176.75,-694.45"/>
<text xml:space="preserve" text-anchor="middle" x="1157.25" y="-695.2" font-family="Times New Roman,serif" font-size="14.00">1..*</text>
</g>
<!-- VariableMeta -->
<g id="node17" class="node">
<title>VariableMeta</title>
<path fill="none" stroke="#666666" d="M528.5,-16.75C528.5,-16.75 805.75,-16.75 805.75,-16.75 811.75,-16.75 817.75,-22.75 817.75,-28.75 817.75,-28.75 817.75,-89.25 817.75,-89.25 817.75,-95.25 811.75,-101.25 805.75,-101.25 805.75,-101.25 528.5,-101.25 528.5,-101.25 522.5,-101.25 516.5,-95.25 516.5,-89.25 516.5,-89.25 516.5,-28.75 516.5,-28.75 516.5,-22.75 522.5,-16.75 528.5,-16.75"/>
<text xml:space="preserve" text-anchor="middle" x="550.38" y="-56.83" font-family="Segoe UI" font-size="9.00">VariableMeta</text>
<polyline fill="none" stroke="#666666" points="584.25,-16.75 584.25,-101.25"/>
<text xml:space="preserve" text-anchor="start" x="592.25" y="-88.7" font-family="Segoe UI" font-size="9.00">PK variable_id : UUID</text>
<text xml:space="preserve" text-anchor="start" x="592.25" y="-75.95" font-family="Segoe UI" font-size="9.00">name : text</text>
<text xml:space="preserve" text-anchor="start" x="592.25" y="-63.2" font-family="Segoe UI" font-size="9.00">description : text</text>
<text xml:space="preserve" text-anchor="start" x="592.25" y="-50.45" font-family="Segoe UI" font-size="9.00">scope : enum(Global/Local)</text>
<text xml:space="preserve" text-anchor="start" x="592.25" y="-37.7" font-family="Segoe UI" font-size="9.00">value_type : enum(Single/Array)</text>
<text xml:space="preserve" text-anchor="start" x="592.25" y="-24.95" font-family="Segoe UI" font-size="9.00">data_type : enum(string,float,int,boolean,coordinate,…)</text>
</g>
<!-- VariableMeta&#45;&gt;VariableUpdate -->
<g id="edge13" class="edge">
<title>VariableMeta&#45;&gt;VariableUpdate</title>
<path fill="none" stroke="#4d4d4d" d="M817.9,-59C836.89,-59 856.17,-59 874.74,-59"/>
<polygon fill="#4d4d4d" stroke="#4d4d4d" points="874.7,-61.45 881.7,-59 874.7,-56.55 874.7,-61.45"/>
<text xml:space="preserve" text-anchor="middle" x="846.25" y="-62.2" font-family="Times New Roman,serif" font-size="14.00">1..*</text>
</g>
</g>
</svg>
