<?xml version="1.0" encoding="UTF-8" standalone="no"?>
<!DOCTYPE svg PUBLIC "-//W3C//DTD SVG 1.1//EN"
 "http://www.w3.org/Graphics/SVG/1.1/DTD/svg11.dtd">
<!-- Generated by graphviz version 14.0.0 (20250921.2048)
 -->
<!-- Title: MIND_Model Pages: 1 -->
<svg width="1901pt" height="301pt"
 viewBox="0.00 0.00 1901.00 301.00" xmlns="http://www.w3.org/2000/svg" xmlns:xlink="http://www.w3.org/1999/xlink">
<g id="graph0" class="graph" transform="scale(1 1) rotate(0) translate(4 297.25)">
<title>MIND_Model</title>
<polygon fill="white" stroke="none" points="-4,4 -4,-297.25 1897,-297.25 1897,4 -4,4"/>
<text xml:space="preserve" text-anchor="middle" x="946.5" y="-279.75" font-family="Segoe UI" font-size="10.00">MIND Data Architecture: Relational Structure + JSONB Payloads</text>
<g id="clust1" class="cluster">
<title>cluster_relational</title>
<polygon fill="#f8faff" stroke="#b0c4de" points="8,-8 8,-132 947,-132 947,-8 8,-8"/>
<text xml:space="preserve" text-anchor="middle" x="477.5" y="-118.5" font-family="Segoe UI" font-size="10.00">Relational Layer (SQL)</text>
</g>
<g id="clust2" class="cluster">
<title>cluster_json</title>
<polygon fill="#f7fff7" stroke="#98fb98" points="1168,-21 1168,-263 1395.5,-263 1395.5,-21 1168,-21"/>
<text xml:space="preserve" text-anchor="middle" x="1281.75" y="-249.5" font-family="Segoe UI" font-size="10.00">JSON Schema Layer (MIND Schema Definitions)</text>
</g>
<g id="clust3" class="cluster">
<title>cluster_sdk</title>
<polygon fill="#fff8f2" stroke="#ffdab9" points="1502.5,-99 1502.5,-263 1885,-263 1885,-99 1502.5,-99"/>
<text xml:space="preserve" text-anchor="middle" x="1693.75" y="-249.5" font-family="Segoe UI" font-size="10.00">Language SDK Layer (e.g., mind&#45;csharp, mind&#45;python)</text>
</g>
<!-- Researcher -->
<g id="node1" class="node">
<title>Researcher</title>
<path fill="none" stroke="#666666" d="M28,-35.88C28,-35.88 170.25,-35.88 170.25,-35.88 176.25,-35.88 182.25,-41.88 182.25,-47.88 182.25,-47.88 182.25,-70.12 182.25,-70.12 182.25,-76.12 176.25,-82.12 170.25,-82.12 170.25,-82.12 28,-82.12 28,-82.12 22,-82.12 16,-76.12 16,-70.12 16,-70.12 16,-47.88 16,-47.88 16,-41.88 22,-35.88 28,-35.88"/>
<text xml:space="preserve" text-anchor="middle" x="45.38" y="-56.83" font-family="Segoe UI" font-size="9.00">Researcher</text>
<polyline fill="none" stroke="#666666" points="74.75,-35.88 74.75,-82.12"/>
<text xml:space="preserve" text-anchor="start" x="82.75" y="-69.58" font-family="Segoe UI" font-size="9.00">researcher_id : UUID PK</text>
<text xml:space="preserve" text-anchor="start" x="82.75" y="-56.83" font-family="Segoe UI" font-size="9.00">name : text</text>
<text xml:space="preserve" text-anchor="start" x="82.75" y="-44.08" font-family="Segoe UI" font-size="9.00">email : text</text>
</g>
<!-- Experience -->
<g id="node2" class="node">
<title>Experience</title>
<path fill="none" stroke="#666666" d="M251.25,-29.5C251.25,-29.5 447.5,-29.5 447.5,-29.5 453.5,-29.5 459.5,-35.5 459.5,-41.5 459.5,-41.5 459.5,-76.5 459.5,-76.5 459.5,-82.5 453.5,-88.5 447.5,-88.5 447.5,-88.5 251.25,-88.5 251.25,-88.5 245.25,-88.5 239.25,-82.5 239.25,-76.5 239.25,-76.5 239.25,-41.5 239.25,-41.5 239.25,-35.5 245.25,-29.5 251.25,-29.5"/>
<text xml:space="preserve" text-anchor="middle" x="268.62" y="-56.83" font-family="Segoe UI" font-size="9.00">Experience</text>
<polyline fill="none" stroke="#666666" points="298,-29.5 298,-88.5"/>
<text xml:space="preserve" text-anchor="start" x="306" y="-75.95" font-family="Segoe UI" font-size="9.00">experience_id : UUID PK</text>
<text xml:space="preserve" text-anchor="start" x="306" y="-63.2" font-family="Segoe UI" font-size="9.00">researcher_id : UUID FK → Researcher</text>
<text xml:space="preserve" text-anchor="start" x="306" y="-50.45" font-family="Segoe UI" font-size="9.00">name : text</text>
<text xml:space="preserve" text-anchor="start" x="306" y="-37.7" font-family="Segoe UI" font-size="9.00">description : text</text>
</g>
<!-- Researcher&#45;&gt;Experience -->
<g id="edge1" class="edge">
<title>Researcher&#45;&gt;Experience</title>
<path fill="none" stroke="#4d4d4d" d="M182.44,-59C197.83,-59 214.18,-59 230.4,-59"/>
<polygon fill="#4d4d4d" stroke="#4d4d4d" points="230.34,-61.45 237.34,-59 230.34,-56.55 230.34,-61.45"/>
<text xml:space="preserve" text-anchor="middle" x="210.75" y="-62.2" font-family="Times New Roman,serif" font-size="14.00">1..*</text>
</g>
<!-- Run -->
<g id="node3" class="node">
<title>Run</title>
<path fill="none" stroke="#666666" d="M528.5,-23.12C528.5,-23.12 700,-23.12 700,-23.12 706,-23.12 712,-29.12 712,-35.12 712,-35.12 712,-82.88 712,-82.88 712,-88.88 706,-94.88 700,-94.88 700,-94.88 528.5,-94.88 528.5,-94.88 522.5,-94.88 516.5,-88.88 516.5,-82.88 516.5,-82.88 516.5,-35.12 516.5,-35.12 516.5,-29.12 522.5,-23.12 528.5,-23.12"/>
<text xml:space="preserve" text-anchor="middle" x="532.38" y="-56.83" font-family="Segoe UI" font-size="9.00">Run</text>
<polyline fill="none" stroke="#666666" points="548.25,-23.12 548.25,-94.88"/>
<text xml:space="preserve" text-anchor="start" x="556.25" y="-82.33" font-family="Segoe UI" font-size="9.00">run_id : UUID PK</text>
<text xml:space="preserve" text-anchor="start" x="556.25" y="-69.58" font-family="Segoe UI" font-size="9.00">experience_id : UUID FK → Experience</text>
<text xml:space="preserve" text-anchor="start" x="556.25" y="-56.83" font-family="Segoe UI" font-size="9.00">participant_id : UUID</text>
<text xml:space="preserve" text-anchor="start" x="556.25" y="-44.08" font-family="Segoe UI" font-size="9.00">start_time : timestamptz</text>
<text xml:space="preserve" text-anchor="start" x="556.25" y="-31.32" font-family="Segoe UI" font-size="9.00">end_time : timestamptz</text>
</g>
<!-- Experience&#45;&gt;Run -->
<g id="edge2" class="edge">
<title>Experience&#45;&gt;Run</title>
<path fill="none" stroke="#4d4d4d" d="M459.95,-59C475.91,-59 492.31,-59 508.17,-59"/>
<polygon fill="#4d4d4d" stroke="#4d4d4d" points="507.9,-61.45 514.9,-59 507.9,-56.55 507.9,-61.45"/>
<text xml:space="preserve" text-anchor="middle" x="488" y="-62.2" font-family="Times New Roman,serif" font-size="14.00">1..*</text>
</g>
<!-- EyeTracking -->
<g id="node4" class="node">
<title>EyeTracking</title>
<path fill="none" stroke="#666666" d="M781,-16.75C781,-16.75 927,-16.75 927,-16.75 933,-16.75 939,-22.75 939,-28.75 939,-28.75 939,-89.25 939,-89.25 939,-95.25 933,-101.25 927,-101.25 927,-101.25 781,-101.25 781,-101.25 775,-101.25 769,-95.25 769,-89.25 769,-89.25 769,-28.75 769,-28.75 769,-22.75 775,-16.75 781,-16.75"/>
<text xml:space="preserve" text-anchor="middle" x="800.25" y="-56.83" font-family="Segoe UI" font-size="9.00">EyeTracking</text>
<polyline fill="none" stroke="#666666" points="831.5,-16.75 831.5,-101.25"/>
<text xml:space="preserve" text-anchor="start" x="839.5" y="-88.7" font-family="Segoe UI" font-size="9.00">eye_id : UUID PK</text>
<text xml:space="preserve" text-anchor="start" x="839.5" y="-75.95" font-family="Segoe UI" font-size="9.00">run_id : UUID FK → Run</text>
<text xml:space="preserve" text-anchor="start" x="839.5" y="-63.2" font-family="Segoe UI" font-size="9.00">frame_number : int</text>
<text xml:space="preserve" text-anchor="start" x="839.5" y="-50.45" font-family="Segoe UI" font-size="9.00">left_eye : JSONB</text>
<text xml:space="preserve" text-anchor="start" x="839.5" y="-37.7" font-family="Segoe UI" font-size="9.00">right_eye : JSONB</text>
<text xml:space="preserve" text-anchor="start" x="839.5" y="-24.95" font-family="Segoe UI" font-size="9.00">gaze : JSONB</text>
</g>
<!-- Run&#45;&gt;EyeTracking -->
<g id="edge3" class="edge">
<title>Run&#45;&gt;EyeTracking</title>
<path fill="none" stroke="#4d4d4d" d="M712.29,-59C728.26,-59 744.77,-59 760.61,-59"/>
<polygon fill="#4d4d4d" stroke="#4d4d4d" points="760.32,-61.45 767.32,-59 760.32,-56.55 760.32,-61.45"/>
<text xml:space="preserve" text-anchor="middle" x="740.5" y="-62.2" font-family="Times New Roman,serif" font-size="14.00">1..*</text>
</g>
<!-- Eye -->
<g id="node7" class="node">
<title>Eye</title>
<path fill="none" stroke="#666666" d="M1194.75,-29.5C1194.75,-29.5 1367.75,-29.5 1367.75,-29.5 1373.75,-29.5 1379.75,-35.5 1379.75,-41.5 1379.75,-41.5 1379.75,-76.5 1379.75,-76.5 1379.75,-82.5 1373.75,-88.5 1367.75,-88.5 1367.75,-88.5 1194.75,-88.5 1194.75,-88.5 1188.75,-88.5 1182.75,-82.5 1182.75,-76.5 1182.75,-76.5 1182.75,-41.5 1182.75,-41.5 1182.75,-35.5 1188.75,-29.5 1194.75,-29.5"/>
<text xml:space="preserve" text-anchor="middle" x="1232.38" y="-56.83" font-family="Segoe UI" font-size="9.00">eye_tracking.def.json</text>
<polyline fill="none" stroke="#666666" points="1282,-29.5 1282,-88.5"/>
<text xml:space="preserve" text-anchor="start" x="1290" y="-75.95" font-family="Segoe UI" font-size="9.00">position : vector3</text>
<text xml:space="preserve" text-anchor="start" x="1290" y="-63.2" font-family="Segoe UI" font-size="9.00">rotation : quaternion</text>
<text xml:space="preserve" text-anchor="start" x="1290" y="-50.45" font-family="Segoe UI" font-size="9.00">pupil_size : number</text>
<text xml:space="preserve" text-anchor="start" x="1290" y="-37.7" font-family="Segoe UI" font-size="9.00">hit_object : object</text>
</g>
<!-- EyeTracking&#45;&gt;Eye -->
<g id="edge4" class="edge">
<title>EyeTracking&#45;&gt;Eye</title>
<path fill="none" stroke="#4d4d4d" d="M939.27,-59C1006.65,-59 1101.51,-59 1174.08,-59"/>
<polygon fill="#4d4d4d" stroke="#4d4d4d" points="1173.85,-61.45 1180.85,-59 1173.85,-56.55 1173.85,-61.45"/>
<text xml:space="preserve" text-anchor="middle" x="1057.5" y="-62.2" font-family="Times New Roman,serif" font-size="14.00">JSONB payload → validated against</text>
</g>
<!-- Vector3 -->
<g id="node5" class="node">
<title>Vector3</title>
<path fill="none" stroke="#666666" d="M1224.75,-185.88C1224.75,-185.88 1337.75,-185.88 1337.75,-185.88 1343.75,-185.88 1349.75,-191.88 1349.75,-197.88 1349.75,-197.88 1349.75,-220.12 1349.75,-220.12 1349.75,-226.12 1343.75,-232.12 1337.75,-232.12 1337.75,-232.12 1224.75,-232.12 1224.75,-232.12 1218.75,-232.12 1212.75,-226.12 1212.75,-220.12 1212.75,-220.12 1212.75,-197.88 1212.75,-197.88 1212.75,-191.88 1218.75,-185.88 1224.75,-185.88"/>
<text xml:space="preserve" text-anchor="middle" x="1252.25" y="-206.82" font-family="Segoe UI" font-size="9.00">vector3.def.json</text>
<polyline fill="none" stroke="#666666" points="1291.75,-185.88 1291.75,-232.12"/>
<text xml:space="preserve" text-anchor="start" x="1299.75" y="-219.57" font-family="Segoe UI" font-size="9.00">x : number</text>
<text xml:space="preserve" text-anchor="start" x="1299.75" y="-206.82" font-family="Segoe UI" font-size="9.00">y : number</text>
<text xml:space="preserve" text-anchor="start" x="1299.75" y="-194.07" font-family="Segoe UI" font-size="9.00">z : number</text>
</g>
<!-- SDK_Vector3 -->
<g id="node8" class="node">
<title>SDK_Vector3</title>
<path fill="none" stroke="#666666" d="M1531.5,-185.88C1531.5,-185.88 1643.75,-185.88 1643.75,-185.88 1649.75,-185.88 1655.75,-191.88 1655.75,-197.88 1655.75,-197.88 1655.75,-220.12 1655.75,-220.12 1655.75,-226.12 1649.75,-232.12 1643.75,-232.12 1643.75,-232.12 1531.5,-232.12 1531.5,-232.12 1525.5,-232.12 1519.5,-226.12 1519.5,-220.12 1519.5,-220.12 1519.5,-197.88 1519.5,-197.88 1519.5,-191.88 1525.5,-185.88 1531.5,-185.88"/>
<text xml:space="preserve" text-anchor="middle" x="1564.62" y="-206.82" font-family="Segoe UI" font-size="9.00">Vector3 (C# Struct)</text>
<polyline fill="none" stroke="#666666" points="1609.75,-185.88 1609.75,-232.12"/>
<text xml:space="preserve" text-anchor="start" x="1617.75" y="-219.57" font-family="Segoe UI" font-size="9.00">X : float</text>
<text xml:space="preserve" text-anchor="start" x="1617.75" y="-206.82" font-family="Segoe UI" font-size="9.00">Y : float</text>
<text xml:space="preserve" text-anchor="start" x="1617.75" y="-194.07" font-family="Segoe UI" font-size="9.00">Z : float</text>
</g>
<!-- Vector3&#45;&gt;SDK_Vector3 -->
<g id="edge6" class="edge">
<title>Vector3&#45;&gt;SDK_Vector3</title>
<path fill="none" stroke="#4d4d4d" d="M1350.18,-209C1397.8,-209 1461.48,-209 1510.76,-209"/>
<polygon fill="#4d4d4d" stroke="#4d4d4d" points="1510.65,-211.45 1517.65,-209 1510.65,-206.55 1510.65,-211.45"/>
<text xml:space="preserve" text-anchor="middle" x="1449" y="-212.2" font-family="Times New Roman,serif" font-size="14.00">implemented as</text>
</g>
<!-- Quaternion -->
<g id="node6" class="node">
<title>Quaternion</title>
<path fill="none" stroke="#666666" d="M1216.5,-107.5C1216.5,-107.5 1346,-107.5 1346,-107.5 1352,-107.5 1358,-113.5 1358,-119.5 1358,-119.5 1358,-154.5 1358,-154.5 1358,-160.5 1352,-166.5 1346,-166.5 1346,-166.5 1216.5,-166.5 1216.5,-166.5 1210.5,-166.5 1204.5,-160.5 1204.5,-154.5 1204.5,-154.5 1204.5,-119.5 1204.5,-119.5 1204.5,-113.5 1210.5,-107.5 1216.5,-107.5"/>
<text xml:space="preserve" text-anchor="middle" x="1251.12" y="-134.82" font-family="Segoe UI" font-size="9.00">quaternion.def.json</text>
<polyline fill="none" stroke="#666666" points="1297.75,-107.5 1297.75,-166.5"/>
<text xml:space="preserve" text-anchor="start" x="1305.75" y="-153.95" font-family="Segoe UI" font-size="9.00">x : number</text>
<text xml:space="preserve" text-anchor="start" x="1305.75" y="-141.2" font-family="Segoe UI" font-size="9.00">y : number</text>
<text xml:space="preserve" text-anchor="start" x="1305.75" y="-128.45" font-family="Segoe UI" font-size="9.00">z : number</text>
<text xml:space="preserve" text-anchor="start" x="1305.75" y="-115.7" font-family="Segoe UI" font-size="9.00">w : number</text>
</g>
<!-- SDK_Quaternion -->
<g id="node9" class="node">
<title>SDK_Quaternion</title>
<path fill="none" stroke="#666666" d="M1522.5,-107.5C1522.5,-107.5 1652.75,-107.5 1652.75,-107.5 1658.75,-107.5 1664.75,-113.5 1664.75,-119.5 1664.75,-119.5 1664.75,-154.5 1664.75,-154.5 1664.75,-160.5 1658.75,-166.5 1652.75,-166.5 1652.75,-166.5 1522.5,-166.5 1522.5,-166.5 1516.5,-166.5 1510.5,-160.5 1510.5,-154.5 1510.5,-154.5 1510.5,-119.5 1510.5,-119.5 1510.5,-113.5 1516.5,-107.5 1522.5,-107.5"/>
<text xml:space="preserve" text-anchor="middle" x="1563.12" y="-134.82" font-family="Segoe UI" font-size="9.00">Quaternion (C# Struct)</text>
<polyline fill="none" stroke="#666666" points="1615.75,-107.5 1615.75,-166.5"/>
<text xml:space="preserve" text-anchor="start" x="1623.75" y="-153.95" font-family="Segoe UI" font-size="9.00">X : float</text>
<text xml:space="preserve" text-anchor="start" x="1623.75" y="-141.2" font-family="Segoe UI" font-size="9.00">Y : float</text>
<text xml:space="preserve" text-anchor="start" x="1623.75" y="-128.45" font-family="Segoe UI" font-size="9.00">Z : float</text>
<text xml:space="preserve" text-anchor="start" x="1623.75" y="-115.7" font-family="Segoe UI" font-size="9.00">W : float</text>
</g>
<!-- Quaternion&#45;&gt;SDK_Quaternion -->
<g id="edge7" class="edge">
<title>Quaternion&#45;&gt;SDK_Quaternion</title>
<path fill="none" stroke="#4d4d4d" d="M1358.27,-137C1401.95,-137 1456.91,-137 1501.96,-137"/>
<polygon fill="#4d4d4d" stroke="#4d4d4d" points="1501.74,-139.45 1508.74,-137 1501.74,-134.55 1501.74,-139.45"/>
<text xml:space="preserve" text-anchor="middle" x="1449" y="-140.2" font-family="Times New Roman,serif" font-size="14.00">implemented as</text>
</g>
<!-- SDK_Eye -->
<g id="node10" class="node">
<title>SDK_Eye</title>
<path fill="none" stroke="#666666" d="M1713.75,-107.5C1713.75,-107.5 1865,-107.5 1865,-107.5 1871,-107.5 1877,-113.5 1877,-119.5 1877,-119.5 1877,-154.5 1877,-154.5 1877,-160.5 1871,-166.5 1865,-166.5 1865,-166.5 1713.75,-166.5 1713.75,-166.5 1707.75,-166.5 1701.75,-160.5 1701.75,-154.5 1701.75,-154.5 1701.75,-119.5 1701.75,-119.5 1701.75,-113.5 1707.75,-107.5 1713.75,-107.5"/>
<text xml:space="preserve" text-anchor="middle" x="1738.62" y="-134.82" font-family="Segoe UI" font-size="9.00">Eye (C# Struct)</text>
<polyline fill="none" stroke="#666666" points="1775.5,-107.5 1775.5,-166.5"/>
<text xml:space="preserve" text-anchor="start" x="1783.5" y="-153.95" font-family="Segoe UI" font-size="9.00">Position : Vector3</text>
<text xml:space="preserve" text-anchor="start" x="1783.5" y="-141.2" font-family="Segoe UI" font-size="9.00">Rotation : Quaternion</text>
<text xml:space="preserve" text-anchor="start" x="1783.5" y="-128.45" font-family="Segoe UI" font-size="9.00">PupilSize : float</text>
<text xml:space="preserve" text-anchor="start" x="1783.5" y="-115.7" font-family="Segoe UI" font-size="9.00">HitObject : object</text>
</g>
<!-- Eye&#45;&gt;SDK_Eye -->
<g id="edge5" class="edge">
<title>Eye&#45;&gt;SDK_Eye</title>
<path fill="none" stroke="#4d4d4d" d="M1379.98,-55.1C1458.13,-54.27 1569.94,-58.26 1664.75,-81.5 1685.33,-86.54 1706.72,-94.91 1725.82,-103.63"/>
<polygon fill="#4d4d4d" stroke="#4d4d4d" points="1724.54,-105.74 1731.92,-106.47 1726.61,-101.29 1724.54,-105.74"/>
<text xml:space="preserve" text-anchor="middle" x="1587.62" y="-84.7" font-family="Times New Roman,serif" font-size="14.00">implemented as</text>
</g>
<!-- SDK_Vector3&#45;&gt;SDK_Eye -->
<g id="edge8" class="edge">
<title>SDK_Vector3&#45;&gt;SDK_Eye</title>
<path fill="none" stroke="#999999" stroke-dasharray="5,2" d="M1654.03,-185.42C1667.98,-180.4 1682.96,-175 1697.67,-169.7"/>
<polygon fill="#999999" stroke="#999999" points="1698.15,-172.13 1703.9,-167.45 1696.49,-167.52 1698.15,-172.13"/>
</g>
<!-- SDK_Quaternion&#45;&gt;SDK_Eye -->
<g id="edge9" class="edge">
<title>SDK_Quaternion&#45;&gt;SDK_Eye</title>
<path fill="none" stroke="#999999" stroke-dasharray="5,2" d="M1665,-137C1674.2,-137 1683.68,-137 1693.11,-137"/>
<polygon fill="#999999" stroke="#999999" points="1692.85,-139.45 1699.85,-137 1692.85,-134.55 1692.85,-139.45"/>
</g>
</g>
</svg>
